<svg fill="none" height="201" viewBox="0 0 213 201" width="213" xmlns="http://www.w3.org/2000/svg" xmlns:xlink="http://www.w3.org/1999/xlink"><clipPath id="a"><path d="m0 0h213v200.569h-213z"/></clipPath><g clip-path="url(#a)"><path d="m154.639 113.815v55.406l9.267 15.103.706 1.149h36.568l.738-71.658z" fill="#e6e6e6"/><path d="m154.639 113.815v55.406l9.267 15.103.569-70.509z" fill="#000" opacity=".1"/><path d="m66.3589 112.337v55.406l-9.2677 15.104-.7053 1.149h-36.5679l-.7389-71.659z" fill="#e6e6e6"/><path d="m66.3589 112.337v55.406l-9.2677 15.104-.5687-70.51z" fill="#000" opacity=".1"/><path d="m213 111.229v3.325h-198.7227v-4.802l18.4686-9.604h164.0021z" fill="#e6e6e6"/><path d="m213 111.229v3.325h-198.7227v-4.802z" fill="#000" opacity=".1"/><g fill="#3f3d56"><path d="m42.719 127.851h-8.8651l-3.6937-2.586h16.6218z"/><path d="m42.719 138.563h-8.8651l-3.6937-2.586h16.6218z"/><path d="m42.719 153.707h-8.8651l-3.6937-2.586h16.6218z"/><path d="m42.719 168.852h-8.8651l-3.6937-2.586h16.6218z"/><path d="m178.279 129.328h8.865l3.694-2.585h-16.622z"/><path d="m178.279 140.04h8.865l3.694-2.585h-16.622z"/><path d="m178.279 155.185h8.865l3.694-2.586h-16.622z"/><path d="m178.279 170.329h8.865l3.694-2.586h-16.622z"/><path d="m184.316 36.0765h-74.631c-.371 0-.738.073-1.08.2148-.343.1418-.654.3497-.916.6118s-.47.5733-.612.9157c-.142.3425-.215.7095-.215 1.0802v50.2732c0 .3707.073.7377.215 1.0802.142.3424.35.6536.612.9157s.573.47.916.6118c.342.1418.709.2148 1.08.2147h28.33l-1.061 6.7766s-6.066 3.2228-1.801 3.3168c4.265.095 24.358 0 24.358 0s3.885 0-2.275-3.4116l-.998-6.6818h28.078c.37.0001.737-.0729 1.08-.2147.342-.1418.653-.3497.915-.6118.263-.2621.47-.5733.612-.9157.142-.3425.215-.7095.215-1.0802v-50.2732c0-.3707-.073-.7377-.215-1.0802-.142-.3424-.349-.6536-.612-.9157-.262-.2621-.573-.47-.915-.6118-.343-.1418-.71-.2148-1.08-.2148z"/></g><path d="m184.437 39.062h-74.874v41.8912h74.874z" fill="#f2f2f2"/><path d="m147 38.209c.262 0 .474-.2122.474-.4739s-.212-.4739-.474-.4739c-.261 0-.474.2122-.474.4739s.213.4739.474.4739z" fill="#f2f2f2"/><path d="m147 89.957c.995 0 1.801-.8063 1.801-1.8008s-.806-1.8007-1.801-1.8007-1.801.8062-1.801 1.8007.806 1.8008 1.801 1.8008z" fill="#f2f2f2"/><path d="m144.195 107.206v.948h-50.9899v-.758l.0701-.19 1.2567-3.412h48.6201z" fill="#3f3d56"/><path d="m163.817 106.278c-.093.398-.444.816-1.236 1.213-2.843 1.421-8.625-.379-8.625-.379s-4.454-.759-4.454-2.749c.125-.086.255-.163.39-.232 1.196-.633 5.159-2.193 12.187.066.518.162.98.465 1.336.875.158.155.276.345.346.555s.089.433.056.651z" fill="#3f3d56"/><path d="m163.817 106.278c-3.48 1.334-6.582 1.433-9.766-.778-1.204-.89-2.661-1.37-4.158-1.369 1.195-.633 5.159-2.193 12.186.066.518.162.981.465 1.336.875.158.155.276.345.346.555s.089.433.056.651z" fill="#000" opacity=".1"/><path d="m159.454 105.5c.68 0 1.232-.169 1.232-.379 0-.209-.552-.379-1.232-.379-.681 0-1.232.17-1.232.379 0 .21.551.379 1.232.379z" fill="#f2f2f2"/><path d="m144.195 107.206v.948h-50.9899v-.758l.0701-.19z" fill="#000" opacity=".1"/><path d="m28.3513.00004842c-.5175-.04248812-1.0357.07326968-1.4859.33193458-.4421.302733-.7207.833087-1.0051 1.326617-1.0874 1.90949-2.5595 3.57235-4.3231 4.88323-1.2845.94102-2.9176 2.11436-2.6978 3.84937.1159.573.3276 1.1223.6261 1.6249 1.185 2.3921 4.4187 4.2407 4.1006 6.9703 1.1773-1.971-.3974-2.9456.7799-4.9165.5607-.9387 1.5347-1.9982 2.3812-1.4087.2834.1973.4695.5513.7646.7245.7042.4132 1.4534-.3768 2.0767-.9363 2.1495-1.9296 5.2062-1.4241 7.881-.8229 1.2628.2838 2.6498.6562 3.3962 1.8631.9815 1.5868-.9324 3.3006-1.416 5.0946-.0395.1529-.0414.3131-.0055.4668.036.1537.1086.2965.2117.4161.1031.1195.2336.2124.3804.2705s.3055.0798.4625.0632c.8026-.0791 1.7533-.144 1.8008-.4962 1.0098.0359 2.2471-.0784 2.6797-1.1299.1323-.416.2022-.8493.2074-1.2858.1588-1.7662.9085-3.3775 1.4051-5.0585.4965-1.681.7125-3.65104-.1256-5.14144-.2991-.49588-.6689-.94543-1.0979-1.33444-4.7558-4.602321-11.0085-5.36130315-16.997-5.35447158z" fill="#2f2e41"/><path d="m24.6003 22.434s1.0342 8.6191-2.7582 9.3087c-3.7924.6895 3.4477 12.4115 3.4477 12.4115l17.2382 2.0686-4.1372-13.7906s-2.7581-1.0343-1.0343-7.9296-12.7562-2.0686-12.7562-2.0686z" fill="#ffb8b8"/><path d="m14.085 170.51 1.3792 18.962h7.2397l-2.0683-18.962z" fill="#ffb8b8"/><path d="m67.1787 134.655 1.0342 15.859 7.9298-3.448-3.1031-13.101z" fill="#ffb8b8"/><path d="m8.91309 98.1098s.34475 19.9962 2.41331 26.5472c2.0686 6.55 1.7239 6.895 1.3791 7.929s-.6895.345-.6895 2.069-.6896 28.96 0 31.373c.6895 2.414-2.06861 6.551 0 6.896 2.0686.344 11.7219 0 12.0667-2.069s-2.7581-2.758-1.379-4.137c1.379-1.379 3.4476-29.65 3.4476-29.65l4.8267-19.651 8.9639-10.343h18.962l5.861 22.754s-2.4134 6.551-.6896 6.551c1.7239 0 12.0668 2.068 12.0668-5.517 0-7.584-3.4477-29.994-4.1372-30.684-.6895-.6892.3448-3.1025-.6895-4.1368s-13.101-8.2744-17.583-9.6534c-4.4819-1.3791-10.7693-3.0204-10.7693-3.0204z" fill="#2f2e41"/><path d="m76.1422 144.308s-5.1715-1.724-7.5848 3.448c-2.4134 5.171-1.3791 6.55-1.3791 6.55s7.9296 2.758 9.3087 1.379c.6-.6 2.5052-.808 4.4663-.852 2.9869-.067 3.7815-4.293.9606-5.277-.0841-.029-.1693-.055-.2555-.076-2.7581-.69-5.5162-5.172-5.5162-5.172z" fill="#2f2e41"/><path d="m32.3576 28.1227c5.7122 0 10.3429-4.6307 10.3429-10.343 0-5.7122-4.6307-10.34287-10.3429-10.34287-5.7123 0-10.343 4.63067-10.343 10.34287 0 5.7123 4.6307 10.343 10.343 10.343z" fill="#ffb8b8"/><path d="m18.9111 36.0522s16.8934 3.4476 21.0306-2.0686 5.861 15.5144 5.861 15.5144l2.0686 22.0649-3.1029 12.0667s-16.2039 13.1011-21.3754 14.1353c-5.1714 1.0343-13.101 1.7239-13.101 1.7239s2.4134-38.2688 2.4134-38.9584c0-.6895 6.2057-24.4782 6.2057-24.4782z" fill="#47a7eb"/><path d="m24.0498 29.5863s-3.7586-2.1532-4.7929-.0846-10.68767 7.24-11.72197 7.24c-1.03429 0 2.06859 28.6155.68953 32.0631-1.37905 3.4476-7.929567 28.6154-4.13716 30.684 3.7924 2.0682 1.03429-2.0686 4.82669 3.1032 3.79241 5.171 22.40961 5.171 23.44391 3.103 1.0343-2.069-8.2743-17.5834-6.5505-32.0635s4.482-34.4764 2.0686-37.2345c-2.4133-2.7581-3.8262-6.8107-3.8262-6.8107z" fill="#2f2e41"/><path d="m36.4941 31.915.4803-1.6526s14.3446 4.7555 15.0341 7.8584c.6896 3.1029.3448 24.823-2.0686 26.5468-2.4133 1.7238-5.8609 4.4819-3.4476 8.6191 2.4134 4.1372 5.1714 8.6191 7.24 8.9639 2.0686.3447 5.861 2.7581 4.8267 5.1714-1.0343 2.4134-13.4458-2.0686-13.4458-2.0686s-8.2743-6.2057-7.9295-15.8591c.3447-9.6534-.6896-37.5793-.6896-37.5793z" fill="#2f2e41"/><path d="m48.5613 72.5972-8.2744 15.5143s-12.0667 12.4115-5.1714 13.7905 10.6877-11.3771 10.6877-11.3771l8.9638-12.7563z" fill="#ffb8b8"/><path d="m28.8551 2.70625c-.4169-.03089-.8345.0501-1.2096.23461-.3392.2477-.6187.56805-.8182.93764-.9196 1.38325-2.1183 2.5589-3.5191 3.45143-1.0457.66512-2.3751 1.49441-2.1962 2.72067.0971.4112.27.8007.5097 1.1485.968 1.7078 1.3533 3.6845 1.0977 5.6308l2.8752-4.1792c.4565-.6634 1.2493-1.4123 1.9384-.9957.2308.1395.3823.3897.6225.5121.5732.2921 1.1831-.2663 1.6905-.6618 1.7498-1.3638 4.2381-1.0065 6.4154-.5815 1.028.2006 2.1571.4638 2.7647 1.3168 1.0098 1.4175-.0446 3.4658.5448 5.1034.1649-.1155.305-.2629.412-.4336.1069-.1706.1785-.361.2105-.5598.822.0254 1.8292-.0555 2.1814-.7986.1071-.2913.1642-.5985.1688-.9088.1293-1.2484.7395-2.3872 1.1437-3.5753.4043-1.18817.5801-2.58058-.1022-3.63398-.2495-.35692-.5507-.67478-.8937-.94317-3.8714-3.25289-8.9614-3.78933-13.8363-3.7845z" fill="#2f2e41"/><path d="m48.5618 36.7417 3.2122.8526s7.4755 19.1437 5.7517 32.2447c-1.7238 13.1011-2.7581 10.343-2.7581 10.343s-2.7581-6.2058-8.9639-4.8267z" fill="#2f2e41"/><path d="m14.5628 186.966c-.8314 1.13-.6647 2.745-1.4012 3.939-.6383 1.035-1.8414 1.577-2.6399 2.494-.2548.305-.4819.632-.67868.977-.7407 1.24-1.34274 2.83-.61326 4.078.58683 1.003 1.82034 1.395 2.95154 1.663 1.4298.337 2.9154.608 4.3618.35 1.4463-.259 2.8598-1.144 3.3755-2.52.1014-.346.2219-.686.361-1.018.7839-1.544 3.2428-1.56 4.0451-3.094.5614-1.074.0453-2.371-.4706-3.467l-1.5757-3.348c-.5229-1.111-2.6426-.472-3.7477-.738-1.4413-.347-2.9311-.73-3.9679.684z" fill="#2f2e41"/><path d="m3.05273 79.4925 14.48007 22.4095s8.9639 11.377 11.722 6.206c2.7581-5.172-9.6534-13.7907-9.6534-13.7907l-9.3086-17.2381z" fill="#ffb8b8"/><path d="m10.2924 37.4312-2.75807-.6895s-5.51623 1.7238-6.895282 8.9639c-1.379054 7.24-.344765 36.2002 1.379052 36.5449 1.72382.3448 8.5139-5.0425 9.6008-3.9003s-2.36076-4.7188-1.3265-7.8216c1.0343-3.1029 0-33.0974 0-33.0974z" fill="#2f2e41"/><g fill="#47a7eb"><path d="m139.913 52.8204h-8.911v2.1452h8.911z"/><path d="m170.771 52.8204h-3.135v2.1452h3.135z"/><path d="m177.042 52.8204h-3.136v2.1452h3.136z"/><path d="m164.336 52.8204h-21.287v2.1452h21.287z"/><path d="m128.692 66.6817h-8.911v2.1452h8.911z"/><path d="m159.55 66.6817h-3.135v2.1452h3.135z"/><path d="m165.821 66.6817h-3.135v2.1452h3.135z"/><path d="m153.114 66.6817h-21.287v2.1452h21.287z"/><path d="m165.491 57.6058h-8.911v2.1452h8.911z"/><path d="m177.537 57.6058h-8.911v2.1452h8.911z"/><path d="m122.917 57.6058h-3.136v2.1452h3.136z"/><path d="m129.187 57.6058h-3.135v2.1452h3.135z"/><path d="m153.609 57.6058h-21.287v2.1452h21.287z"/><path d="m147.008 62.2263h-8.91v2.1452h8.91z"/><path d="m134.963 62.2263h-8.911v2.1452h8.911z"/><path d="m122.917 62.2263h-3.136v2.1452h3.136z"/><path d="m177.537 62.2263h-3.136v2.1452h3.136z"/><path d="m171.266 62.2263h-21.287v2.1452h21.287z"/></g></g></svg>